# xmcd
#
# Track frame offsets:
#	150
#	19064
#	33115
#	46647
#	67083
#	86528
#	102517
#	114462
#	126320
#	142316
#	158260
#
# Disc length: 2532 seconds
#
# Revision: 0
# Processed by: cddbd v1.5.2PL0 Copyright (c) Steve Scherf et al.
# Submitted via: audiograbber 1.83.01
#
DISCID=8c09e20b
DTITLE=Dum Dum Boys - Soul Bondage Deluxe
DYEAR=2001
DGENRE=Garage
TTITLE0=Bubblegum
TTITLE1=Never Give Up
TTITLE2=Electronic Pop Music
TTITLE3=X.Pressway to paradise
TTITLE4=Nude women on the moon
TTITLE5=(welcome to) The loser Club
TTITLE6=I can't give you anything (but this song)
TTITLE7=Vicious Circle
TTITLE8=South of nowhere
TTITLE9=Make it funky
TTITLE10=Saptio Dynamic Theme
EXTD=
EXTT0=
EXTT1=
EXTT2=
EXTT3=
EXTT4=
EXTT5=
EXTT6=
EXTT7=
EXTT8=
EXTT9=
EXTT10=
PLAYORDER=
